<svg width="0" height="0" fill="none" style="visibility: hidden; position: absolute;" aria-hidden="true">
    <symbol id="facebook-blue" width="38.000000" height="38.000000" viewBox="0 0 38 38" fill="none" xmlns="http://www.w3.org/2000/svg">
        <defs />
        <path id="Vector__facebook-blue" d="M38 19.1162C38 8.55859 29.4934 0 19 0C8.50658 0 0 8.55859 0 19.1162C0 28.6577 6.94803 36.5659 16.0312 38L16.0312 24.6421L11.207 24.6421L11.207 19.1162L16.0312 19.1162L16.0312 14.9048C16.0312 10.1138 18.8678 7.46729 23.2078 7.46729C25.2866 7.46729 27.4609 7.84082 27.4609 7.84082L27.4609 12.5449L25.0651 12.5449C22.7048 12.5449 21.9688 14.0186 21.9688 15.5303L21.9688 19.1162L27.2383 19.1162L26.3959 24.6421L21.9688 24.6421L21.9688 38C31.052 36.5659 38 28.6577 38 19.1162Z" fill="#24A3FF" fill-opacity="1.000000" fill-rule="nonzero"/>
    </symbol>
    <symbol id="facebook-gray" width="24.000000" height="24.000000" viewBox="0 0 24 24" fill="none" xmlns="http://www.w3.org/2000/svg">
        <defs />
        <path id="Vector__facebook-gray" d="M24 12.0732C24 5.40527 18.6274 0 12 0C5.37256 0 0 5.40527 0 12.0732C0 18.0996 4.38818 23.0942 10.125 24L10.125 15.5635L7.07812 15.5635L7.07812 12.0732L10.125 12.0732L10.125 9.41357C10.125 6.3877 11.9165 4.71631 14.6576 4.71631C15.9705 4.71631 17.3438 4.95215 17.3438 4.95215L17.3438 7.92334L15.8306 7.92334C14.3398 7.92334 13.875 8.854 13.875 9.80859L13.875 12.0732L17.2031 12.0732L16.6711 15.5635L13.875 15.5635L13.875 24C19.6118 23.0942 24 18.0996 24 12.0732Z" fill="#B3B3BA" fill-opacity="1.000000" fill-rule="nonzero"/>
    </symbol>
</svg>