<svg width="129.999878" height="46.499023" viewBox="0 0 130 46.499" fill="none" xmlns="http://www.w3.org/2000/svg" xmlns:xlink="http://www.w3.org/1999/xlink">
	<desc>
			Created with Pixso.
	</desc>
	<defs/>
	<path id="h" d="M4.95672 0L0 0L0 35.7988L4.95672 35.7988L4.95672 22.5176C4.95672 20.271 5.51556 18.4985 6.63326 17.25C7.75095 16.002 9.2817 15.353 11.1769 15.353C12.8049 15.353 14.1655 15.9521 15.2589 17.1006C16.3523 18.2739 16.9112 19.7466 16.9112 21.519L16.9112 35.8237L21.8922 35.8237L21.8922 21.519C21.8922 18.2236 20.9932 15.6274 19.1951 13.6802C17.3971 11.7329 15.0402 10.7598 12.1731 10.7598C11.347 10.7598 10.5209 10.8594 9.71906 11.084C8.89294 11.3086 8.2369 11.5586 7.70235 11.833C7.1678 12.1074 6.65755 12.4072 6.1959 12.7568C5.73425 13.106 5.41837 13.356 5.27259 13.5054C5.1268 13.6553 5.00531 13.7554 4.95672 13.8301L4.95672 0Z" fill="#F0145A" fill-opacity="1.000000" fill-rule="nonzero"/>
	<path id="Vector" d="M27.8628 0L32.9726 0L32.9726 35.769L27.8628 35.769L27.8628 0Z" fill="#323264" fill-opacity="1.000000" fill-rule="evenodd"/>
	<path id="Vector" d="M63.1114 25.293L63.3669 22.7383C63.3669 19.3145 62.2428 16.4531 59.9433 14.1538C57.6439 11.854 54.7824 10.73 51.3588 10.73C47.9352 10.73 44.9715 11.9565 42.5188 14.4092C40.0661 16.8618 38.8397 19.7744 38.8397 23.249C38.8397 26.8262 40.1171 29.8921 42.621 32.4468C45.1248 35.002 48.1396 36.2793 51.6143 36.2793C52.9428 36.2793 54.1692 36.0747 55.3956 35.7173C56.6219 35.3081 57.6439 34.8994 58.3593 34.4907C59.1258 34.0308 59.8922 33.52 60.5565 32.958C61.2208 32.3955 61.6807 31.9868 61.8851 31.7314C62.0895 31.4761 62.2428 31.3228 62.345 31.1694L59.0236 27.8481L58.2571 28.8188C57.7461 29.4321 56.8774 30.0454 55.6511 30.7095C54.3736 31.3735 53.045 31.6802 51.6143 31.6802C49.6215 31.6802 47.9352 31.0674 46.5045 29.7896C45.0737 28.5122 44.205 27.0303 43.9495 25.293L63.1114 25.293ZM51.3588 15.0732C53.2494 15.0732 54.7824 15.6353 56.0599 16.7085C57.2862 17.8325 58.0527 19.2124 58.3593 20.9497L44.1539 20.9497C44.6138 19.2124 45.4314 17.8325 46.7088 16.7085C47.9352 15.6353 49.5193 15.0732 51.3588 15.0732Z" fill="#323264" fill-opacity="1.000000" fill-rule="nonzero"/>
	<path id="Vector" d="M86.9429 34.2861C86.9429 36.5347 86.2786 38.374 84.8989 39.8052C83.5704 41.1846 81.8841 41.8999 79.7891 41.8999C78.8693 41.8999 77.9496 41.7466 77.0809 41.4912C76.2122 41.2358 75.5479 40.9292 74.9859 40.5713C74.4238 40.2139 73.9128 39.856 73.4018 39.396C72.9419 38.936 72.6353 38.6299 72.482 38.4766C72.3287 38.3232 72.2265 38.1699 72.1244 38.0674L68.803 41.3892L69.2117 41.8999C69.4672 42.2578 69.9271 42.7178 70.5403 43.2285C71.1535 43.6885 71.8689 44.1992 72.6864 44.7104C73.504 45.1704 74.526 45.5791 75.8034 45.9365C77.0809 46.2944 78.4095 46.499 79.7891 46.499C83.2638 46.499 86.1253 45.3237 88.5269 42.9731C90.8774 40.5713 92.0527 37.71 92.0527 34.2354L92.0527 11.2407L86.9429 11.2407L86.9429 13.7959L86.0742 13.0293C85.5121 12.5186 84.6434 12.0073 83.4171 11.4966C82.1907 10.9854 80.8622 10.73 79.5336 10.73C76.4166 10.73 73.7595 11.9053 71.4601 14.3066C69.1606 16.7085 68.0365 19.5698 68.0365 22.9937C68.0365 26.417 69.1606 29.2788 71.4601 31.6802C73.7595 34.082 76.4166 35.2573 79.5336 35.2573C80.4023 35.2573 81.2199 35.1548 82.0885 34.9507C82.9061 34.6953 83.5704 34.4395 84.1325 34.1841C84.6945 33.9287 85.2055 33.6221 85.6654 33.2642C86.1253 32.9067 86.483 32.6514 86.5852 32.5488L86.9429 32.1914L86.9429 34.2861ZM73.1463 22.9937C73.1463 20.8477 73.8106 19.0591 75.1903 17.5771C76.5699 16.0952 78.2051 15.3286 80.0446 15.3286C81.8841 15.3286 83.5193 16.0952 84.8989 17.5771C86.2275 19.0591 86.9429 20.8477 86.9429 22.9937C86.9429 25.1396 86.2275 26.9282 84.8989 28.4102C83.5193 29.8921 81.8841 30.6582 80.0446 30.6582C78.2051 30.6582 76.5699 29.8921 75.1903 28.4102C73.8106 26.9282 73.1463 25.1396 73.1463 22.9937Z" fill="#323264" fill-opacity="1.000000" fill-rule="nonzero"/>
	<path id="Vector" d="M118.724 35.7681L118.724 19.9277C118.724 17.3218 117.753 15.1245 115.863 13.3872C113.972 11.5986 111.519 10.73 108.504 10.73C107.329 10.73 106.154 10.8833 105.03 11.1899C103.906 11.5474 102.986 11.9053 102.321 12.314C101.657 12.7227 100.993 13.1826 100.38 13.7446C99.7666 14.2559 99.4089 14.6133 99.2045 14.8179C99.0512 15.0225 98.8979 15.1758 98.7957 15.3286L102.117 18.6504L102.781 17.7817C103.19 17.2192 103.906 16.7085 104.979 16.1465C106.052 15.5845 107.227 15.3286 108.504 15.3286C109.986 15.3286 111.213 15.7886 112.183 16.6572C113.154 17.5259 113.614 18.6504 113.614 19.9277L104.672 21.4604C102.475 21.8184 100.686 22.687 99.46 24.0669C98.1825 25.4463 97.5182 27.1323 97.5182 29.1255C97.5182 31.0161 98.3358 32.6514 99.971 34.082C101.657 35.564 103.701 36.2793 106.205 36.2793C107.074 36.2793 107.891 36.1768 108.709 35.9214C109.577 35.7173 110.242 35.4614 110.804 35.2061C111.366 34.9507 111.877 34.644 112.337 34.2861C112.797 33.9287 113.103 33.6733 113.308 33.5708C113.461 33.4175 113.563 33.2642 113.614 33.2134L113.614 35.7681L118.724 35.7681ZM106.971 31.6802C105.643 31.6802 104.57 31.3735 103.803 30.7607C102.986 30.1475 102.628 29.4321 102.628 28.6143C102.628 27.7456 102.884 26.9795 103.446 26.417C104.008 25.855 104.774 25.4463 105.694 25.293L113.614 24.0156L113.614 24.5264C113.614 26.8262 113.052 28.5635 111.877 29.8408C110.702 31.0674 109.066 31.6802 106.971 31.6802Z" fill="#323264" fill-opacity="1.000000" fill-rule="nonzero"/>
	<path id="Vector" d="M124.89 0L130 0L130 35.769L124.89 35.769L124.89 0Z" fill="#323264" fill-opacity="1.000000" fill-rule="evenodd"/>
</svg>
