<svg width="130.000000" height="60.146973" viewBox="0 0 130 60.147" fill="none" xmlns="http://www.w3.org/2000/svg" xmlns:xlink="http://www.w3.org/1999/xlink">
	<desc>
			Created with Pixso.
	</desc>
	<defs/>
	<path id="h" d="M4.95672 0L0 0L0 35.7988L4.95672 35.7988L4.95672 22.5176C4.95672 20.271 5.51557 18.4985 6.63326 17.25C7.75095 16.002 9.2817 15.353 11.1769 15.353C12.8049 15.353 14.1655 15.9521 15.2589 17.1006C16.3523 18.2739 16.9112 19.7466 16.9112 21.519L16.9112 35.8237L21.8922 35.8237L21.8922 21.519C21.8922 18.2236 20.9932 15.6274 19.1951 13.6802C17.3971 11.7329 15.0402 10.7598 12.1731 10.7598C11.347 10.7598 10.5209 10.8594 9.71906 11.084C8.89294 11.3086 8.2369 11.5586 7.70235 11.833C7.16781 12.1074 6.65755 12.4072 6.1959 12.7568C5.73424 13.106 5.41838 13.356 5.27259 13.5054C5.1268 13.6553 5.00532 13.7554 4.95672 13.8301L4.95672 0Z" fill="#F0145A" fill-opacity="1.000000" fill-rule="nonzero"/>
	<path id="Vector" d="M27.8628 0L32.9726 0L32.9726 35.769L27.8628 35.769L27.8628 0Z" fill="#323264" fill-opacity="1.000000" fill-rule="evenodd"/>
	<path id="Vector" d="M63.1114 25.293L63.3669 22.7383C63.3669 19.3145 62.2428 16.4531 59.9433 14.1538C57.6439 11.854 54.7824 10.73 51.3588 10.73C47.9352 10.73 44.9715 11.9565 42.5188 14.4092C40.0661 16.8618 38.8397 19.7744 38.8397 23.249C38.8397 26.8262 40.1171 29.8921 42.621 32.4468C45.1248 35.002 48.1396 36.2793 51.6143 36.2793C52.9428 36.2793 54.1692 36.0747 55.3956 35.7173C56.6219 35.3081 57.6439 34.8994 58.3593 34.4907C59.1258 34.0308 59.8922 33.52 60.5565 32.958C61.2208 32.3955 61.6807 31.9868 61.8851 31.7314C62.0895 31.4761 62.2428 31.3228 62.345 31.1694L59.0236 27.8481L58.2571 28.8188C57.7461 29.4321 56.8774 30.0454 55.6511 30.7095C54.3736 31.3735 53.045 31.6802 51.6143 31.6802C49.6215 31.6802 47.9352 31.0674 46.5045 29.7896C45.0737 28.5122 44.205 27.0303 43.9495 25.293L63.1114 25.293ZM51.3588 15.0732C53.2494 15.0732 54.7824 15.6353 56.0599 16.7085C57.2862 17.8325 58.0527 19.2124 58.3593 20.9497L44.1539 20.9497C44.6138 19.2124 45.4314 17.8325 46.7088 16.7085C47.9352 15.6353 49.5193 15.0732 51.3588 15.0732Z" fill="#323264" fill-opacity="1.000000" fill-rule="nonzero"/>
	<path id="Vector" d="M86.9429 34.2861C86.9429 36.5347 86.2786 38.374 84.899 39.8052C83.5704 41.1846 81.8842 41.8999 79.7891 41.8999C78.8693 41.8999 77.9496 41.7466 77.0809 41.4912C76.2122 41.2358 75.548 40.9292 74.9859 40.5713C74.4238 40.2139 73.9128 39.856 73.4018 39.396C72.9419 38.936 72.6354 38.6299 72.4821 38.4766C72.3288 38.3232 72.2266 38.1699 72.1244 38.0674L68.803 41.3892L69.2118 41.8999C69.4673 42.2578 69.9271 42.7178 70.5403 43.2285C71.1535 43.6885 71.8689 44.1992 72.6864 44.7104C73.504 45.1704 74.526 45.5791 75.8035 45.9365C77.0809 46.2944 78.4095 46.499 79.7891 46.499C83.2638 46.499 86.1253 45.3237 88.5269 42.9731C90.8775 40.5713 92.0527 37.71 92.0527 34.2354L92.0527 11.2407L86.9429 11.2407L86.9429 13.7959L86.0742 13.0293C85.5121 12.5186 84.6435 12.0073 83.4171 11.4966C82.1907 10.9854 80.8622 10.73 79.5336 10.73C76.4166 10.73 73.7595 11.9053 71.4601 14.3066C69.1607 16.7085 68.0365 19.5698 68.0365 22.9937C68.0365 26.417 69.1607 29.2788 71.4601 31.6802C73.7595 34.082 76.4166 35.2573 79.5336 35.2573C80.4023 35.2573 81.2199 35.1548 82.0885 34.9507C82.9061 34.6953 83.5704 34.4395 84.1325 34.1841C84.6946 33.9287 85.2055 33.6221 85.6654 33.2642C86.1253 32.9067 86.483 32.6514 86.5852 32.5488L86.9429 32.1914L86.9429 34.2861ZM73.1463 22.9937C73.1463 20.8477 73.8106 19.0591 75.1903 17.5771C76.5699 16.0952 78.2051 15.3286 80.0446 15.3286C81.8842 15.3286 83.5193 16.0952 84.899 17.5771C86.2275 19.0591 86.9429 20.8477 86.9429 22.9937C86.9429 25.1396 86.2275 26.9282 84.899 28.4102C83.5193 29.8921 81.8842 30.6582 80.0446 30.6582C78.2051 30.6582 76.5699 29.8921 75.1903 28.4102C73.8106 26.9282 73.1463 25.1396 73.1463 22.9937Z" fill="#323264" fill-opacity="1.000000" fill-rule="nonzero"/>
	<path id="Vector" d="M118.724 35.7681L118.724 19.9277C118.724 17.3218 117.753 15.1245 115.863 13.3872C113.972 11.5986 111.519 10.73 108.504 10.73C107.329 10.73 106.154 10.8833 105.03 11.1899C103.906 11.5474 102.986 11.9053 102.321 12.314C101.657 12.7227 100.993 13.1826 100.38 13.7446C99.7666 14.2559 99.4089 14.6133 99.2045 14.8179C99.0512 15.0225 98.8979 15.1758 98.7957 15.3286L102.117 18.6504L102.781 17.7817C103.19 17.2192 103.906 16.7085 104.979 16.1465C106.052 15.5845 107.227 15.3286 108.504 15.3286C109.986 15.3286 111.213 15.7886 112.183 16.6572C113.154 17.5259 113.614 18.6504 113.614 19.9277L104.672 21.4604C102.475 21.8184 100.686 22.687 99.46 24.0669C98.1825 25.4463 97.5182 27.1323 97.5182 29.1255C97.5182 31.0161 98.3358 32.6514 99.971 34.082C101.657 35.564 103.701 36.2793 106.205 36.2793C107.074 36.2793 107.891 36.1768 108.709 35.9214C109.577 35.7173 110.242 35.4614 110.804 35.2061C111.366 34.9507 111.877 34.644 112.337 34.2861C112.797 33.9287 113.103 33.6733 113.308 33.5708C113.461 33.4175 113.563 33.2642 113.614 33.2134L113.614 35.7681L118.724 35.7681ZM106.971 31.6802C105.643 31.6802 104.57 31.3735 103.803 30.7607C102.986 30.1475 102.628 29.4321 102.628 28.6143C102.628 27.7456 102.884 26.9795 103.446 26.417C104.008 25.855 104.774 25.4463 105.694 25.293L113.614 24.0156L113.614 24.5264C113.614 26.8262 113.052 28.5635 111.877 29.8408C110.702 31.0674 109.066 31.6802 106.971 31.6802Z" fill="#323264" fill-opacity="1.000000" fill-rule="nonzero"/>
	<path id="Vector" d="M124.89 0L130 0L130 35.769L124.89 35.769L124.89 0Z" fill="#323264" fill-opacity="1.000000" fill-rule="evenodd"/>
	<path id="LAW COMPANY" d="M50.5232 60.147C49.819 60.147 49.1807 59.9956 48.6082 59.6929C48.0422 59.3833 47.5947 58.959 47.2657 58.4194Q47.1537 58.2295 47.0676 58.0288Q46.782 57.3623 46.782 56.5732Q46.782 55.7593 47.0862 55.0815Q47.1656 54.9048 47.2657 54.7373C47.5947 54.1909 48.0422 53.7666 48.6082 53.4639C49.1807 53.1548 49.8223 53 50.5331 53C51.1319 53 51.6716 53.1055 52.152 53.3159C52.6389 53.5264 53.047 53.8291 53.376 54.2241L52.3494 55.1719Q51.9661 54.729 51.4823 54.5283Q51.0816 54.3623 50.612 54.3623C50.1843 54.3623 49.8026 54.4575 49.467 54.6484C49.1313 54.833 48.8681 55.0928 48.6773 55.4282C48.493 55.7642 48.4009 56.1455 48.4009 56.5732C48.4009 57.001 48.493 57.3828 48.6773 57.7183C48.8681 58.0542 49.1313 58.3174 49.467 58.5083C49.8026 58.6924 50.1843 58.7847 50.612 58.7847Q51.072 58.7847 51.4658 58.623Q51.9595 58.4209 52.3494 57.9653L53.376 58.9131C53.047 59.3145 52.6389 59.6201 52.152 59.8311C51.665 60.0415 51.122 60.147 50.5232 60.147ZM62.5933 60.147C61.876 60.147 61.2278 59.9922 60.6487 59.6826C60.0761 59.3735 59.6253 58.9492 59.2963 58.4097C58.9738 57.8633 58.8126 57.2515 58.8126 56.5732C58.8126 55.8955 58.9738 55.2866 59.2963 54.7471C59.6253 54.2012 60.0761 53.7734 60.6487 53.4639C61.2278 53.1548 61.876 53 62.5933 53C63.3106 53 63.9555 53.1548 64.5281 53.4639C65.1006 53.7734 65.5514 54.2012 65.8804 54.7471C66.2095 55.2866 66.374 55.8955 66.374 56.5732C66.374 57.2515 66.2095 57.8633 65.8804 58.4097C65.5514 58.9492 65.1006 59.3735 64.5281 59.6826C63.9555 59.9922 63.3106 60.147 62.5933 60.147ZM0 53.1187L1.59915 53.1187L1.59915 58.7251L5.06396 58.7251L5.06396 60.0283L0 60.0283L0 53.1187ZM15.5016 58.5479L12.2934 58.5479L11.6814 60.0283L10.0428 60.0283L13.1226 53.1187L14.702 53.1187L17.7917 60.0283L16.1136 60.0283L15.5016 58.5479ZM33.5121 53.1187L31.2516 60.0283L29.534 60.0283L28.0138 55.3491L26.4443 60.0283L24.7366 60.0283L22.4662 53.1187L24.1245 53.1187L25.6842 57.9751L27.313 53.1187L28.7937 53.1187L30.3731 58.0146L31.9821 53.1187L33.5121 53.1187ZM78.7995 60.0283L78.7896 55.8823L76.7561 59.2979L76.0355 59.2979L74.0119 55.9712L74.0119 60.0283L72.5115 60.0283L72.5115 53.1187L73.8342 53.1187L76.4205 57.4126L78.9673 53.1187L80.2802 53.1187L80.2999 60.0283L78.7995 60.0283ZM89.8659 53.1187C90.478 53.1187 91.0077 53.2202 91.4552 53.4243C91.9093 53.6284 92.2581 53.918 92.5016 54.293C92.7451 54.6685 92.8668 55.1123 92.8668 55.626C92.8668 56.1323 92.7451 56.5767 92.5016 56.9585C92.2581 57.3335 91.9093 57.623 91.4552 57.8271C91.0077 58.0244 90.478 58.123 89.8659 58.123L88.4741 58.123L88.4741 60.0283L86.8749 60.0283L86.8749 53.1187L89.8659 53.1187ZM103.148 58.5479L99.9396 58.5479L99.3276 60.0283L97.6889 60.0283L100.769 53.1187L102.348 53.1187L105.438 60.0283L103.76 60.0283L103.148 58.5479ZM117.428 53.1187L117.428 60.0283L116.115 60.0283L112.67 55.833L112.67 60.0283L111.09 60.0283L111.09 53.1187L112.413 53.1187L115.848 57.314L115.848 53.1187L117.428 53.1187ZM127.315 57.5801L127.315 60.0283L125.716 60.0283L125.716 57.5605L123.041 53.1187L124.739 53.1187L126.585 56.1885L128.43 53.1187L130 53.1187L127.315 57.5801ZM62.5933 58.7847C63.0013 58.7847 63.3698 58.6924 63.6989 58.5083Q63.9344 58.3716 64.1204 58.1855L64.1205 58.1855Q64.3244 57.9814 64.4688 57.7183C64.6597 57.3828 64.7551 57.001 64.7551 56.5732C64.7551 56.1455 64.6597 55.7642 64.4688 55.4282Q64.3169 55.1514 64.0992 54.9434Q63.921 54.7729 63.6989 54.6484C63.3698 54.4575 63.0013 54.3623 62.5933 54.3623C62.1853 54.3623 61.8168 54.4575 61.4877 54.6484C61.1587 54.833 60.8987 55.0928 60.7079 55.4282Q60.6881 55.4644 60.6698 55.501Q60.4315 55.9775 60.4315 56.5732Q60.4315 57.1694 60.6698 57.646L60.6703 57.647Q60.6884 57.6831 60.7079 57.7183C60.8987 58.0542 61.1587 58.3174 61.4877 58.5083C61.8168 58.6924 62.1853 58.7847 62.5933 58.7847ZM89.7771 56.8203C90.2575 56.8203 90.6227 56.7183 90.8728 56.5142Q90.9811 56.4229 91.0581 56.3105Q91.2479 56.0332 91.2479 55.626Q91.2479 55.1938 91.0417 54.9141Q90.9698 54.8164 90.8728 54.7373C90.6227 54.5269 90.2575 54.4214 89.7771 54.4214L88.4741 54.4214L88.4741 56.8203L89.7771 56.8203ZM14.9982 57.3335L13.9025 54.688L12.8067 57.3335L14.9982 57.3335ZM102.644 57.3335L101.549 54.688L100.453 57.3335L102.644 57.3335Z" fill="#323264" fill-opacity="1.000000" fill-rule="evenodd"/>
</svg>
