<svg width="64.000000" height="64.000000" viewBox="0 0 64 64" fill="none" xmlns="http://www.w3.org/2000/svg">
	<desc>
			Created with Pixso.
	</desc>
	<defs>
		<clipPath id="clip22728_7167">
			<rect width="64.000000" height="64.000000" fill="white" fill-opacity="0"/>
		</clipPath>
		<linearGradient id="paint_linear_22728_7152_0" x1="32.505741" y1="56.000000" x2="32.505741" y2="62.000000" gradientUnits="userSpaceOnUse">
			<stop stop-color="#EF8080"/>
			<stop offset="1.000000" stop-color="#F0145A"/>
		</linearGradient>
		<linearGradient id="paint_linear_22728_7153_0" x1="8.455131" y1="9.169198" x2="11.990671" y2="12.704740" gradientUnits="userSpaceOnUse">
			<stop stop-color="#EF8080"/>
			<stop offset="1.000000" stop-color="#F0145A"/>
		</linearGradient>
		<linearGradient id="paint_linear_22728_7154_0" x1="47.344910" y1="4.089660" x2="60.779968" y2="17.524715" gradientUnits="userSpaceOnUse">
			<stop stop-color="#EF8080"/>
			<stop offset="1.000000" stop-color="#F0145A"/>
		</linearGradient>
		<linearGradient id="paint_linear_22728_7155_0" x1="32.142666" y1="7.978516" x2="32.142666" y2="37.030396" gradientUnits="userSpaceOnUse">
			<stop stop-color="#EF8080"/>
			<stop offset="1.000000" stop-color="#F0145A"/>
		</linearGradient>
		<linearGradient id="paint_linear_22728_7156_0" x1="32.412354" y1="17.488281" x2="32.412354" y2="54.932110" gradientUnits="userSpaceOnUse">
			<stop stop-color="#EF8080"/>
			<stop offset="1.000000" stop-color="#F0145A"/>
		</linearGradient>
	</defs>
	<rect width="64.000000" height="64.000000" fill="#FFFFFF" fill-opacity="0"/>
	<g clip-path="url(#clip22728_7167)">
		<path d="M23.0057 56L42.0057 56L42.0057 62L23.0057 62L23.0057 56Z" fill="#000000" fill-opacity="1.000000" fill-rule="evenodd"/>
		<path d="M23.0057 56L42.0057 56L42.0057 62L23.0057 62L23.0057 56Z" fill="url(#paint_linear_22728_7152_0)" fill-opacity="1.000000" fill-rule="evenodd"/>
		<path d="M1.73761 15.8867L15.1726 2.45117L18.7082 5.98633L5.27316 19.4219L1.73761 15.8867Z" fill="#000000" fill-opacity="1.000000" fill-rule="evenodd"/>
		<path d="M1.73761 15.8867L15.1726 2.45117L18.7082 5.98633L5.27316 19.4219L1.73761 15.8867Z" fill="url(#paint_linear_22728_7153_0)" fill-opacity="1.000000" fill-rule="evenodd"/>
		<path d="M45.5771 5.85742L49.1127 2.32227L62.5477 15.7578L59.0122 19.293L45.5771 5.85742Z" fill="#000000" fill-opacity="1.000000" fill-rule="evenodd"/>
		<path d="M45.5771 5.85742L49.1127 2.32227L62.5477 15.7578L59.0122 19.293L45.5771 5.85742Z" fill="url(#paint_linear_22728_7154_0)" fill-opacity="1.000000" fill-rule="evenodd"/>
		<path d="M44.5563 9.70703L41.865 9.5918C41.089 9.48242 40.2981 9.55469 39.5548 9.80273C38.8115 10.0527 38.136 10.4707 37.5818 11.0234L32.0774 16.5293L26.3239 10.7754C25.8243 10.2871 25.2011 9.94336 24.5213 9.7832C23.8415 9.62305 23.1309 9.65234 22.466 9.86523C21.8388 10.0566 21.1715 10.0742 20.5355 9.91406C19.8994 9.75586 19.3186 9.42578 18.855 8.96289L18.0011 8.10938L7.39447 18.7148L9.12247 20.4434L9.00839 23.1348C8.89886 23.9102 8.97116 24.7012 9.2196 25.4453C9.46805 26.1875 9.88583 26.8633 10.44 27.418L20.0524 37.0312C20.1809 35.7695 20.7855 34.6035 21.7431 33.7715L18.7482 30.7773L19.4553 30.0703L22.5835 33.1973C23.0269 32.9453 23.5067 32.7637 24.0059 32.6562L24.0059 28.9629L22.2837 27.2402L22.9908 26.5332L24.0059 27.5488L24.0059 22.1992C23.9947 21.3145 24.3086 20.457 24.8878 19.7891C25.4671 19.1211 26.2715 18.6895 27.1484 18.5742C27.4792 18.543 27.8127 18.5566 28.1392 18.6191L26.9097 17.3887L27.6169 16.6816L29.413 18.4785C29.7311 17.8613 30.2232 17.3535 30.8282 17.0137C31.4333 16.6738 32.1246 16.5195 32.8164 16.5703C33.6513 16.668 34.4258 17.0547 35.0056 17.6621C35.5854 18.2715 35.9341 19.0645 35.9912 19.9023C36.5595 19.6328 37.1893 19.5176 37.8164 19.5703C38.7075 19.6777 39.5272 20.1113 40.1165 20.7871C40.7059 21.4648 41.0228 22.3359 41.0058 23.2324L41.0058 26.6562C41.9159 26.8477 42.755 27.2871 43.4291 27.9277C44.1031 28.5684 44.5854 29.3828 44.8219 30.2832L47.6104 27.4941L48.3176 28.2012L45.0023 31.5156C45.0024 31.5293 45.0059 31.543 45.0059 31.5566L45.0059 34.877C45.9043 34.7832 46.7436 34.3848 47.3848 33.748L54.2249 26.9082C54.713 26.4082 55.0555 25.7852 55.2157 25.1055C55.3759 24.4258 55.3475 23.7148 55.1338 23.0508C54.9431 22.4219 54.9263 21.7559 55.0854 21.1191C55.2445 20.4844 55.5734 19.9023 56.037 19.4395L56.8909 18.5859L46.2843 7.97852L44.5563 9.70703Z" fill="#000000" fill-opacity="1.000000" fill-rule="nonzero"/>
		<path d="M44.5563 9.70703L41.865 9.5918C41.089 9.48242 40.2981 9.55469 39.5548 9.80273C38.8115 10.0527 38.136 10.4707 37.5818 11.0234L32.0774 16.5293L26.3239 10.7754C25.8243 10.2871 25.2011 9.94336 24.5213 9.7832C23.8415 9.62305 23.1309 9.65234 22.466 9.86523C21.8388 10.0566 21.1715 10.0742 20.5355 9.91406C19.8994 9.75586 19.3186 9.42578 18.855 8.96289L18.0011 8.10938L7.39447 18.7148L9.12247 20.4434L9.00839 23.1348C8.89886 23.9102 8.97116 24.7012 9.2196 25.4453C9.46805 26.1875 9.88583 26.8633 10.44 27.418L20.0524 37.0312C20.1809 35.7695 20.7855 34.6035 21.7431 33.7715L18.7482 30.7773L19.4553 30.0703L22.5835 33.1973C23.0269 32.9453 23.5067 32.7637 24.0059 32.6562L24.0059 28.9629L22.2837 27.2402L22.9908 26.5332L24.0059 27.5488L24.0059 22.1992C23.9947 21.3145 24.3086 20.457 24.8878 19.7891C25.4671 19.1211 26.2715 18.6895 27.1484 18.5742C27.4792 18.543 27.8127 18.5566 28.1392 18.6191L26.9097 17.3887L27.6169 16.6816L29.413 18.4785C29.7311 17.8613 30.2232 17.3535 30.8282 17.0137C31.4333 16.6738 32.1246 16.5195 32.8164 16.5703C33.6513 16.668 34.4258 17.0547 35.0056 17.6621C35.5854 18.2715 35.9341 19.0645 35.9912 19.9023C36.5595 19.6328 37.1893 19.5176 37.8164 19.5703C38.7075 19.6777 39.5272 20.1113 40.1165 20.7871C40.7059 21.4648 41.0228 22.3359 41.0058 23.2324L41.0058 26.6562C41.9159 26.8477 42.755 27.2871 43.4291 27.9277C44.1031 28.5684 44.5854 29.3828 44.8219 30.2832L47.6104 27.4941L48.3176 28.2012L45.0023 31.5156C45.0024 31.5293 45.0059 31.543 45.0059 31.5566L45.0059 34.877C45.9043 34.7832 46.7436 34.3848 47.3848 33.748L54.2249 26.9082C54.713 26.4082 55.0555 25.7852 55.2157 25.1055C55.3759 24.4258 55.3475 23.7148 55.1338 23.0508C54.9431 22.4219 54.9263 21.7559 55.0854 21.1191C55.2445 20.4844 55.5734 19.9023 56.037 19.4395L56.8909 18.5859L46.2843 7.97852L44.5563 9.70703Z" fill="url(#paint_linear_22728_7155_0)" fill-opacity="1.000000" fill-rule="nonzero"/>
		<path d="M29.8804 21.6895C29.8044 21.041 29.476 20.4473 28.966 20.0371C28.4559 19.627 27.8053 19.4355 27.1546 19.502C26.5234 19.5879 25.9463 19.9043 25.5328 20.3887C25.1194 20.875 24.8986 21.4941 24.9124 22.1309L24.9124 33.4883C23.8515 33.4883 22.8341 33.9102 22.0839 34.6602C21.3338 35.4102 20.9124 36.4277 20.9124 37.4883L20.9124 47.1621C20.9205 47.8594 21.1189 48.543 21.4864 49.1367C21.8538 49.7305 22.3763 50.2129 22.9976 50.5332C23.576 50.8418 24.0597 51.3008 24.3969 51.8633C24.7342 52.4258 24.9124 53.0684 24.9124 53.7246L24.9124 54.9316L39.9124 54.9316L39.9124 52.4883L41.896 50.666C42.5222 50.1953 43.0303 49.584 43.3803 48.8828C43.7302 48.1816 43.9124 47.4082 43.9124 46.625L43.9124 31.4883C43.9124 30.4277 43.4909 29.4102 42.7408 28.6602C41.9906 27.9102 40.9732 27.4883 39.9124 27.4883L39.9124 23.166C39.9294 22.5195 39.7062 21.8887 39.286 21.3945C38.8657 20.9023 38.2781 20.584 37.6362 20.498C37.0063 20.4434 36.3787 20.6289 35.8807 21.0176C35.3826 21.4082 35.0513 21.9727 34.9539 22.5977L35.4124 22.5977L35.4124 38.041L34.4124 38.041L34.4124 22.5977L34.9124 22.5977L34.9124 20.166C34.9294 19.5195 34.7062 18.8887 34.286 18.3945C33.8657 17.9023 33.2781 17.584 32.6362 17.498C32.2904 17.4668 31.942 17.5078 31.613 17.6191C31.2841 17.7305 30.9819 17.9082 30.7256 18.1426C30.4694 18.377 30.2647 18.6621 30.1247 18.9805C29.9847 19.2988 29.9124 19.6406 29.9124 19.9883L29.9124 21.6895L30.4124 21.6895L30.4124 37.1328L29.4124 37.1328L29.4124 21.6895L29.8804 21.6895ZM25.3115 42.041L24.3115 42.041L24.3115 34.041L25.3115 34.041L25.3115 42.041ZM39.4124 27.7988L40.4124 27.7988L40.4124 38.2422L39.4124 38.2422L39.4124 27.7988Z" fill="#000000" fill-opacity="1.000000" fill-rule="nonzero"/>
		<path d="M29.8804 21.6895C29.8044 21.041 29.476 20.4473 28.966 20.0371C28.4559 19.627 27.8053 19.4355 27.1546 19.502C26.5234 19.5879 25.9463 19.9043 25.5328 20.3887C25.1194 20.875 24.8986 21.4941 24.9124 22.1309L24.9124 33.4883C23.8515 33.4883 22.8341 33.9102 22.0839 34.6602C21.3338 35.4102 20.9124 36.4277 20.9124 37.4883L20.9124 47.1621C20.9205 47.8594 21.1189 48.543 21.4864 49.1367C21.8538 49.7305 22.3763 50.2129 22.9976 50.5332C23.576 50.8418 24.0597 51.3008 24.3969 51.8633C24.7342 52.4258 24.9124 53.0684 24.9124 53.7246L24.9124 54.9316L39.9124 54.9316L39.9124 52.4883L41.896 50.666C42.5222 50.1953 43.0303 49.584 43.3803 48.8828C43.7302 48.1816 43.9124 47.4082 43.9124 46.625L43.9124 31.4883C43.9124 30.4277 43.4909 29.4102 42.7408 28.6602C41.9906 27.9102 40.9732 27.4883 39.9124 27.4883L39.9124 23.166C39.9294 22.5195 39.7062 21.8887 39.286 21.3945C38.8657 20.9023 38.2781 20.584 37.6362 20.498C37.0063 20.4434 36.3787 20.6289 35.8807 21.0176C35.3826 21.4082 35.0513 21.9727 34.9539 22.5977L35.4124 22.5977L35.4124 38.041L34.4124 38.041L34.4124 22.5977L34.9124 22.5977L34.9124 20.166C34.9294 19.5195 34.7062 18.8887 34.286 18.3945C33.8657 17.9023 33.2781 17.584 32.6362 17.498C32.2904 17.4668 31.942 17.5078 31.613 17.6191C31.2841 17.7305 30.9819 17.9082 30.7256 18.1426C30.4694 18.377 30.2647 18.6621 30.1247 18.9805C29.9847 19.2988 29.9124 19.6406 29.9124 19.9883L29.9124 21.6895L30.4124 21.6895L30.4124 37.1328L29.4124 37.1328L29.4124 21.6895L29.8804 21.6895ZM25.3115 42.041L24.3115 42.041L24.3115 34.041L25.3115 34.041L25.3115 42.041ZM39.4124 27.7988L40.4124 27.7988L40.4124 38.2422L39.4124 38.2422L39.4124 27.7988Z" fill="url(#paint_linear_22728_7156_0)" fill-opacity="1.000000" fill-rule="nonzero"/>
	</g>
</svg>
