<svg width="64.000000" height="64.000000" viewBox="0 0 64 64" fill="none" xmlns="http://www.w3.org/2000/svg">
	<desc>
			Created with Pixso.
	</desc>
	<defs>
		<clipPath id="clip22728_7131">
			<rect width="64.000000" height="64.000000" fill="white" fill-opacity="0"/>
		</clipPath>
		<linearGradient id="paint_linear_22728_7127_0" x1="32.058388" y1="8.000000" x2="32.058388" y2="28.125000" gradientUnits="userSpaceOnUse">
			<stop stop-color="#EF8080"/>
			<stop offset="1.000000" stop-color="#F0145A"/>
		</linearGradient>
		<linearGradient id="paint_linear_22728_7128_0" x1="31.999998" y1="23.630859" x2="31.999998" y2="55.999859" gradientUnits="userSpaceOnUse">
			<stop stop-color="#EF8080"/>
			<stop offset="1.000000" stop-color="#F0145A"/>
		</linearGradient>
	</defs>
	<rect width="64.000000" height="64.000000" fill="#FFFFFF" fill-opacity="0"/>
	<g clip-path="url(#clip22728_7131)">
		<path d="M23.7339 28.125C24.8379 28.125 25.7339 27.2285 25.7339 26.125L25.7339 18.3242C25.7339 14.8379 28.5709 12 32.0579 12C35.5449 12 38.3829 14.8379 38.3829 18.3242L38.3829 26.125C38.3829 27.2285 39.2779 28.125 40.3829 28.125C41.4869 28.125 42.3829 27.2285 42.3829 26.125L42.3829 18.3242C42.3839 12.6328 37.7519 8 32.0579 8C26.3659 8 21.7339 12.6328 21.7339 18.3242L21.7339 26.125C21.7339 27.2285 22.6299 28.125 23.7339 28.125Z" fill="url(#paint_linear_22728_7127_0)" fill-opacity="1.000000" fill-rule="nonzero"/>
		<path d="M55 23.6309L44.384 23.6309L44.384 26.125C44.384 28.3301 42.59 30.125 40.384 30.125C38.178 30.125 36.384 28.3301 36.384 26.125L36.384 23.6309L27.735 23.6309L27.735 26.125C27.735 28.3301 25.941 30.125 23.735 30.125C21.529 30.125 19.735 28.3301 19.735 26.125L19.735 23.6309L9 23.6309C8.448 23.6309 8.10699 24.0664 8.23798 24.6016L15.236 53.0996C15.658 54.7012 17.344 56 19 56L45 56C46.658 56 48.342 54.7012 48.766 53.0996L55.762 24.6016C55.8929 24.0645 55.553 23.6309 55 23.6309Z" fill="url(#paint_linear_22728_7128_0)" fill-opacity="1.000000" fill-rule="nonzero"/>
		<path d="M28.6001 34.4004C28.6001 33.627 29.2266 33 30.0001 33C30.7736 33 31.4001 33.627 31.4001 34.4004L31.4001 41.3496L31.4001 40C31.4001 39.2266 32.0267 38.5996 32.8002 38.5996C33.5737 38.5996 34.2001 39.2266 34.2001 40L34.2001 41.6758C34.2127 40.9141 34.8347 39.3008 35.6 39.3008C36.3732 39.3008 36.9999 39.9277 36.9999 40.6992C36.9999 40.6992 37.0411 41.7402 37.1332 41.8027C37.3572 41.3281 37.8402 40 38.4 40C39.1732 40 39.8 40.627 39.8 41.4004L39.8 48.4004C39.8 49.9473 38.5463 51.1992 37 51.1992L32.3198 51.1992C30.8344 51.1992 29.4099 50.6094 28.3599 49.5605L26.15 47.3496L23 45.9395C23.0051 44.6035 24.0526 44.1992 25.1 44.1992C26.0023 44.1992 26.8136 44.3398 28.6 45.25L28.6001 34.4004Z" fill="#FFFFFF" fill-opacity="1.000000" fill-rule="nonzero"/>
	</g>
</svg>
