<svg width="64.000000" height="64.000000" viewBox="0 0 64 64" fill="none" xmlns="http://www.w3.org/2000/svg">
	<desc>
			Created with Pixso.
	</desc>
	<defs>
		<clipPath id="clip22728_7150">
			<rect width="64.000000" height="64.000000" fill="white" fill-opacity="0"/>
		</clipPath>
		<linearGradient id="paint_linear_22728_7146_0" x1="31.999908" y1="0.000000" x2="31.999908" y2="64.000000" gradientUnits="userSpaceOnUse">
			<stop stop-color="#EF8080"/>
			<stop offset="1.000000" stop-color="#F0145A"/>
		</linearGradient>
		<linearGradient id="paint_linear_22728_7149_0" x1="32.000103" y1="21.250000" x2="32.000103" y2="42.749962" gradientUnits="userSpaceOnUse">
			<stop stop-color="#EF8080"/>
			<stop offset="1.000000" stop-color="#F0145A"/>
		</linearGradient>
	</defs>
	<rect width="64.000000" height="64.000000" fill="#FFFFFF" fill-opacity="0"/>
	<g clip-path="url(#clip22728_7150)">
		<path d="M60.5264 37.7266C59.8389 37.4434 59.1151 37.2988 58.3752 37.2988C56.7435 37.2988 55.2363 37.9941 54.1896 39.1621L52.9696 38.6562L49.4895 37.2148C49.9834 35.5625 50.2499 33.8105 50.2499 32C50.2499 30.1875 49.9833 28.4375 49.4895 26.7852L52.9696 25.3438L54.1896 24.8379C55.2363 26.0059 56.7435 26.7012 58.3752 26.7012C59.1151 26.7012 59.8389 26.5566 60.5264 26.2715C63.3917 25.0859 64.7574 21.7891 63.5705 18.9219C62.6965 16.8125 60.656 15.4492 58.3723 15.4492C57.6324 15.4492 56.9086 15.5938 56.2211 15.8789C53.9629 16.8145 52.6374 19.0605 52.7574 21.373L51.5303 21.8809L48.0513 23.3223C46.3611 20.207 43.7916 17.6387 40.6782 15.9492L42.1191 12.4688L42.6269 11.2441C42.7253 11.248 42.8239 11.252 42.9229 11.252C45.2068 11.252 47.2471 9.88867 48.1213 7.7793C49.3081 4.91211 47.9425 1.61523 45.077 0.429688C44.3894 0.144531 43.6658 0 42.9259 0C40.642 0 38.6016 1.36328 37.7275 3.47266C36.7922 5.73242 37.4429 8.25781 39.1629 9.80664L38.6564 11.0293L37.2149 14.5098C35.5618 14.0156 33.8115 13.75 32.0001 13.75C30.1885 13.75 28.4383 14.0156 26.7852 14.5098L25.3437 11.0293L24.8372 9.80664C26.5572 8.25781 27.2079 5.73242 26.2725 3.47266C25.3984 1.36328 23.3578 0 21.074 0C20.3342 0 19.6104 0.144531 18.9229 0.429688C16.0576 1.61719 14.6918 4.91406 15.8788 7.7793C16.7528 9.88867 18.7933 11.252 21.077 11.252C21.1761 11.252 21.2747 11.25 21.373 11.2441L21.8808 12.4688L23.3218 15.9492C20.2083 17.6387 17.6387 20.209 15.9487 23.3223L12.4697 21.8809L11.2426 21.373C11.3625 19.0605 10.037 16.8145 7.77881 15.8789C7.09131 15.5938 6.36755 15.4492 5.62769 15.4492C3.34381 15.4492 1.30347 16.8125 0.429321 18.9238C-0.757507 21.7891 0.608093 25.0859 3.47357 26.2734C4.16107 26.5566 4.88483 26.7012 5.62469 26.7012C7.25647 26.7012 8.76373 26.0059 9.8103 24.8379L11.0303 25.3438L14.5104 26.7852C14.0165 28.4375 13.7501 30.1895 13.7501 32C13.7501 33.8125 14.0167 35.5625 14.5104 37.2148L11.0302 38.6562L9.81018 39.1621C8.76355 37.9941 7.25635 37.2988 5.62457 37.2988C4.8847 37.2988 4.16095 37.4434 3.47345 37.7266C0.608093 38.9141 -0.757629 42.2109 0.429321 45.0762C1.30334 47.1875 3.34381 48.5508 5.62756 48.5508C6.36743 48.5508 7.09119 48.4062 7.77869 48.1211C10.0369 47.1855 11.3624 44.9395 11.2424 42.627L12.4695 42.1191L15.9485 40.6777C17.6387 43.791 20.2082 46.3613 23.3217 48.0508L21.8807 51.5312L21.3729 52.7559C21.2745 52.75 21.1759 52.748 21.0769 52.748C18.7931 52.748 16.7527 54.1113 15.8785 56.2207C14.6917 59.0859 16.0573 62.3828 18.9228 63.5703C19.6103 63.8555 20.334 64 21.0739 64C23.3578 64 25.3982 62.6367 26.2723 60.5273C27.2076 58.2676 26.5569 55.7422 24.8369 54.1934L25.3434 52.9707L26.7849 49.4902C28.438 49.9844 30.1883 50.25 31.9998 50.25C33.8113 50.25 35.5615 49.9844 37.2147 49.4902L38.6561 52.9707L39.1627 54.1934C37.4426 55.7422 36.7919 58.2676 37.7273 60.5273C38.6013 62.6367 40.6418 64 42.9255 64C43.6654 64 44.3892 63.8555 45.0767 63.5703C47.942 62.3828 49.3077 59.0859 48.1207 56.2207C47.2468 54.1113 45.2062 52.748 42.9225 52.748C42.8235 52.748 42.7249 52.75 42.6265 52.7559L42.1188 51.5312L40.6778 48.0508C43.7913 46.3613 46.3609 43.791 48.0509 40.6777L51.5298 42.1191L52.757 42.627C52.637 44.9395 53.9625 47.1855 56.2208 48.1211C56.9083 48.4062 57.632 48.5508 58.3719 48.5508C60.6558 48.5508 62.6961 47.1875 63.5703 45.0762C64.7574 42.2109 63.392 38.9141 60.5264 37.7266ZM32.0001 46.5C24.0048 46.5 17.5001 39.9941 17.5001 32C17.5001 24.0039 24.0048 17.5 32.0001 17.5C39.9953 17.5 46.5 24.0039 46.5 32C46.5 39.9941 39.9951 46.5 32.0001 46.5Z" fill="#000000" fill-opacity="1.000000" fill-rule="nonzero"/>
		<path d="M60.5264 37.7266C59.8389 37.4434 59.1151 37.2988 58.3752 37.2988C56.7435 37.2988 55.2363 37.9941 54.1896 39.1621L52.9696 38.6562L49.4895 37.2148C49.9834 35.5625 50.2499 33.8105 50.2499 32C50.2499 30.1875 49.9833 28.4375 49.4895 26.7852L52.9696 25.3438L54.1896 24.8379C55.2363 26.0059 56.7435 26.7012 58.3752 26.7012C59.1151 26.7012 59.8389 26.5566 60.5264 26.2715C63.3917 25.0859 64.7574 21.7891 63.5705 18.9219C62.6965 16.8125 60.656 15.4492 58.3723 15.4492C57.6324 15.4492 56.9086 15.5938 56.2211 15.8789C53.9629 16.8145 52.6374 19.0605 52.7574 21.373L51.5303 21.8809L48.0513 23.3223C46.3611 20.207 43.7916 17.6387 40.6782 15.9492L42.1191 12.4688L42.6269 11.2441C42.7253 11.248 42.8239 11.252 42.9229 11.252C45.2068 11.252 47.2471 9.88867 48.1213 7.7793C49.3081 4.91211 47.9425 1.61523 45.077 0.429688C44.3894 0.144531 43.6658 0 42.9259 0C40.642 0 38.6016 1.36328 37.7275 3.47266C36.7922 5.73242 37.4429 8.25781 39.1629 9.80664L38.6564 11.0293L37.2149 14.5098C35.5618 14.0156 33.8115 13.75 32.0001 13.75C30.1885 13.75 28.4383 14.0156 26.7852 14.5098L25.3437 11.0293L24.8372 9.80664C26.5572 8.25781 27.2079 5.73242 26.2725 3.47266C25.3984 1.36328 23.3578 0 21.074 0C20.3342 0 19.6104 0.144531 18.9229 0.429688C16.0576 1.61719 14.6918 4.91406 15.8788 7.7793C16.7528 9.88867 18.7933 11.252 21.077 11.252C21.1761 11.252 21.2747 11.25 21.373 11.2441L21.8808 12.4688L23.3218 15.9492C20.2083 17.6387 17.6387 20.209 15.9487 23.3223L12.4697 21.8809L11.2426 21.373C11.3625 19.0605 10.037 16.8145 7.77881 15.8789C7.09131 15.5938 6.36755 15.4492 5.62769 15.4492C3.34381 15.4492 1.30347 16.8125 0.429321 18.9238C-0.757507 21.7891 0.608093 25.0859 3.47357 26.2734C4.16107 26.5566 4.88483 26.7012 5.62469 26.7012C7.25647 26.7012 8.76373 26.0059 9.8103 24.8379L11.0303 25.3438L14.5104 26.7852C14.0165 28.4375 13.7501 30.1895 13.7501 32C13.7501 33.8125 14.0167 35.5625 14.5104 37.2148L11.0302 38.6562L9.81018 39.1621C8.76355 37.9941 7.25635 37.2988 5.62457 37.2988C4.8847 37.2988 4.16095 37.4434 3.47345 37.7266C0.608093 38.9141 -0.757629 42.2109 0.429321 45.0762C1.30334 47.1875 3.34381 48.5508 5.62756 48.5508C6.36743 48.5508 7.09119 48.4062 7.77869 48.1211C10.0369 47.1855 11.3624 44.9395 11.2424 42.627L12.4695 42.1191L15.9485 40.6777C17.6387 43.791 20.2082 46.3613 23.3217 48.0508L21.8807 51.5312L21.3729 52.7559C21.2745 52.75 21.1759 52.748 21.0769 52.748C18.7931 52.748 16.7527 54.1113 15.8785 56.2207C14.6917 59.0859 16.0573 62.3828 18.9228 63.5703C19.6103 63.8555 20.334 64 21.0739 64C23.3578 64 25.3982 62.6367 26.2723 60.5273C27.2076 58.2676 26.5569 55.7422 24.8369 54.1934L25.3434 52.9707L26.7849 49.4902C28.438 49.9844 30.1883 50.25 31.9998 50.25C33.8113 50.25 35.5615 49.9844 37.2147 49.4902L38.6561 52.9707L39.1627 54.1934C37.4426 55.7422 36.7919 58.2676 37.7273 60.5273C38.6013 62.6367 40.6418 64 42.9255 64C43.6654 64 44.3892 63.8555 45.0767 63.5703C47.942 62.3828 49.3077 59.0859 48.1207 56.2207C47.2468 54.1113 45.2062 52.748 42.9225 52.748C42.8235 52.748 42.7249 52.75 42.6265 52.7559L42.1188 51.5312L40.6778 48.0508C43.7913 46.3613 46.3609 43.791 48.0509 40.6777L51.5298 42.1191L52.757 42.627C52.637 44.9395 53.9625 47.1855 56.2208 48.1211C56.9083 48.4062 57.632 48.5508 58.3719 48.5508C60.6558 48.5508 62.6961 47.1875 63.5703 45.0762C64.7574 42.2109 63.392 38.9141 60.5264 37.7266ZM32.0001 46.5C24.0048 46.5 17.5001 39.9941 17.5001 32C17.5001 24.0039 24.0048 17.5 32.0001 17.5C39.9953 17.5 46.5 24.0039 46.5 32C46.5 39.9941 39.9951 46.5 32.0001 46.5Z" fill="url(#paint_linear_22728_7146_0)" fill-opacity="1.000000" fill-rule="nonzero"/>
		<path d="M32.0001 21.25C26.0726 21.25 21.2501 26.0723 21.2501 32C21.2501 37.9277 26.0726 42.75 32.0001 42.75C37.9276 42.75 42.7501 37.9277 42.7501 32C42.7501 26.0723 37.9276 21.25 32.0001 21.25ZM33.8751 36.125L30.1251 36.125L30.1251 27.875L33.8751 27.875L33.8751 36.125Z" fill="#000000" fill-opacity="1.000000" fill-rule="nonzero"/>
		<path d="M32.0001 21.25C26.0726 21.25 21.2501 26.0723 21.2501 32C21.2501 37.9277 26.0726 42.75 32.0001 42.75C37.9276 42.75 42.7501 37.9277 42.7501 32C42.7501 26.0723 37.9276 21.25 32.0001 21.25ZM33.8751 36.125L30.1251 36.125L30.1251 27.875L33.8751 27.875L33.8751 36.125Z" fill="url(#paint_linear_22728_7149_0)" fill-opacity="1.000000" fill-rule="nonzero"/>
	</g>
</svg>
