<svg width="64.000000" height="64.000000" viewBox="0 0 64 64" fill="none" xmlns="http://www.w3.org/2000/svg">
	<desc>
			Created with Pixso.
	</desc>
	<defs>
		<clipPath id="clip22728_7168">
			<rect width="64.000000" height="64.000000" fill="white" fill-opacity="0"/>
		</clipPath>
		<linearGradient id="paint_linear_22728_7158_0" x1="31.999882" y1="4.457031" x2="31.999882" y2="56.331879" gradientUnits="userSpaceOnUse">
			<stop stop-color="#EF8080"/>
			<stop offset="1.000000" stop-color="#F0145A"/>
		</linearGradient>
		<linearGradient id="paint_linear_22728_7159_0" x1="41.231369" y1="40.158203" x2="41.231369" y2="63.542820" gradientUnits="userSpaceOnUse">
			<stop stop-color="#EF8080"/>
			<stop offset="1.000000" stop-color="#F0145A"/>
		</linearGradient>
	</defs>
	<rect width="64.000000" height="64.000000" fill="#FFFFFF" fill-opacity="0"/>
	<g clip-path="url(#clip22728_7168)">
		<path d="M41.2317 37.6953C43.5839 37.6953 45.9096 38.2852 47.9576 39.3965C48.3296 39.5977 48.6709 39.8359 49.0194 40.0664C52.3807 33.4863 54.1545 26.5273 54.1545 19.7383C54.1545 19.3574 54.1545 18.9629 54.1423 18.5703C54.1177 18.0156 53.7238 17.5352 53.17 17.4121C45.7361 15.7891 39.0038 11.7637 33.7115 5.78125L32.9238 4.88281C32.6899 4.61328 32.3577 4.46484 32.0007 4.46484C31.6192 4.41602 31.3238 4.59961 31.0899 4.85938L29.8838 6.1875C24.8622 11.7148 18.5361 15.5293 11.5946 17.2285L10.7946 17.4258C10.253 17.5488 9.87149 18.0273 9.85919 18.582C9.41611 35.8867 19.6315 48.3301 24.0377 52.8828C25.2307 54.1074 26.5606 55.3262 27.8253 56.332C27.3509 54.9004 27.0779 53.3965 27.0779 51.8496C27.0779 44.0449 33.427 37.6953 41.2317 37.6953Z" fill="url(#paint_linear_22728_7158_0)" fill-opacity="1.000000" fill-rule="nonzero"/>
		<path d="M46.7822 41.5605C45.0837 40.6387 43.1637 40.1582 41.2314 40.1582C34.7822 40.1582 29.5391 45.4004 29.5391 51.8496C29.5391 54.0293 30.1299 56.1582 31.2622 57.9805C33.416 61.4629 37.133 63.543 41.2314 63.543C47.6683 63.543 52.9237 58.2988 52.9237 51.8496C52.9237 47.543 50.5729 43.6035 46.7822 41.5605ZM47.2196 50.293L38.0747 57.4102L34.9528 52.5273C34.5862 51.9551 34.7538 51.1934 35.3265 50.8281C35.8999 50.4609 36.6613 50.6289 37.0261 51.2012L38.6937 53.8086L45.7076 48.3516C46.243 47.9336 47.0171 48.0293 47.4347 48.5664C47.8524 49.1035 47.7556 49.877 47.2196 50.293Z" fill="url(#paint_linear_22728_7159_0)" fill-opacity="1.000000" fill-rule="nonzero"/>
	</g>
</svg>
